<svg width="1990" height="1024" viewBox="0 0 1990 1024" fill="none" xmlns="http://www.w3.org/2000/svg">
<path fill-rule="evenodd" clip-rule="evenodd" d="M672 0H380.566L360.868 77.2352L505.846 717.972H329.351L308.077 811.757H527.907L553.121 926.034C554.697 932.864 555.485 940.745 555.485 949.677C555.485 959.134 553.383 967.016 549.181 973.32C544.979 979.625 537.625 985.405 527.119 990.659C512.412 998.54 502.956 1005.11 498.754 1010.36C494.552 1015.62 492.451 1023.5 492.451 1034.01C492.451 1046.62 497.178 1056.86 506.633 1064.74C516.089 1072.1 528.695 1075.78 544.454 1075.78H672V1076H1990V0H698.098H672ZM366.383 363.32L326.199 200.181L148.129 849.587C138.674 885.314 126.593 913.949 111.885 935.491C102.43 948.626 92.4494 959.134 81.9438 967.016C71.9635 974.371 56.2051 982.778 34.6685 992.235C11.5562 1002.22 0 1014.83 0 1030.06C0 1044.25 5.51545 1055.55 16.5463 1063.95C28.1025 1071.83 43.5983 1075.78 63.0337 1075.78H263.166C301.511 1075.78 320.684 1062.64 320.684 1036.37C320.684 1017.98 312.017 1004.85 294.683 996.964L267.105 984.354C236.114 970.168 220.618 946.525 220.618 913.424C220.618 900.814 222.719 887.153 226.921 872.442L366.383 363.32Z" fill="#EB5482"/>
</svg>
