<svg width="67" height="25" viewBox="0 0 67 25" fill="none" xmlns="http://www.w3.org/2000/svg">
<path fill-rule="evenodd" clip-rule="evenodd" d="M27.5892 10.1771C27.1065 9.15867 26.6433 8.18124 25.9351 7.26514C25.9397 7.18669 26.0853 7.04841 26.2985 6.84596C26.9074 6.26762 28.0677 5.16557 28.0677 3.43855C28.0677 2.0859 27.2147 0.733249 25.9173 0.252702C21.4744 -1.34912 18.7553 5.11157 22.6829 7.06936L22.7717 7.31853C22.4091 7.80627 21.7987 9.05036 21.314 10.0383C20.9674 10.7446 20.6851 11.3201 20.6036 11.3943C20.5147 11.3231 20.4258 11.2519 20.3548 11.1807C18.0267 8.63559 15.5919 6.60661 11.9131 6.60661C11.1312 6.60661 9.62058 6.87358 8.85639 7.10495C8.55556 6.98813 8.33957 6.24684 8.07139 5.32647C7.56329 3.58265 6.86787 1.196 5.05322 1.196C2.84952 1.196 1.69435 6.90918 1.39223 8.65339C1.26714 9.3879 1.13661 10.1242 1.00585 10.8618C0.727884 12.4297 0.448925 14.0033 0.219285 15.5768C-0.0828358 17.6948 -0.189467 19.5636 0.681353 21.5036C1.00125 22.2155 2.72511 23.4258 3.50707 23.4436C8.5365 24.725 15.0588 23.8885 19.4129 21.1298C19.4673 21.1532 19.6547 21.3983 19.8779 21.6905C20.1645 22.0656 20.5104 22.5182 20.7102 22.6783C22.7717 24.3157 26.3616 23.7995 28.4232 22.4825C30.2359 23.586 33.0438 24.3691 34.8388 22.7316C34.9147 22.6658 35.0092 22.5496 35.1151 22.4193C35.3813 22.0919 35.7193 21.6764 36.0117 21.7528L39.9038 23.2656C41.8658 23.781 43.0274 23.6697 44.8108 23.4988C44.9982 23.4808 45.1925 23.4622 45.3953 23.4436C45.4275 23.4382 45.8133 23.5027 46.3675 23.5953C47.6477 23.8092 49.8264 24.1733 50.6202 24.1733C54.4944 24.1733 60.1281 23.052 61.6032 18.9229C62.6517 16.0396 61.9586 12.7469 60.217 10.2196C62.8294 10.7536 65.7618 8.65339 66.7215 6.14386C67.5034 4.09708 66.5793 2.31728 64.6955 1.51636C62.0475 0.395086 57.8533 1.78333 56.7337 4.68442C56.4138 5.50313 56.4138 6.28624 56.6271 7.01596C55.543 6.44643 54.3167 6.10826 53.0372 6.07267C48.8608 5.94808 44.4 10.1306 42.5873 13.6012C42.2678 14.1971 42.0849 14.7862 41.8988 15.3853C41.7848 15.7525 41.6696 16.1236 41.521 16.5023C41.4973 16.5854 41.442 16.6684 41.3867 16.7515C41.3591 16.793 41.3314 16.8346 41.3078 16.8761C40.8635 16.7871 37.7534 15.0251 37.7534 14.7937C37.7534 14.6281 38.4548 13.8823 39.3072 12.9761C40.3783 11.8373 41.6878 10.445 42.143 9.63228C43.1916 7.78128 41.13 7.10495 40.1526 7.6389C40.1399 7.64312 39.9654 7.73743 39.686 7.88835C38.7872 8.37394 36.8043 9.44524 35.6385 9.98824C35.5055 9.50846 35.3425 8.50974 35.2168 7.73936C35.1746 7.48093 35.1366 7.24819 35.1054 7.06936C34.8743 5.7523 34.5722 4.52424 34.0746 3.27837C33.7192 2.37067 32.9905 1.28499 31.9065 1.28499C29.8627 1.28499 28.903 5.44973 28.6364 6.99817C28.6177 7.10318 28.5864 7.32515 28.5459 7.6118C28.3942 8.68549 28.1144 10.6665 27.89 10.807C27.7877 10.5959 27.6884 10.3865 27.5899 10.1787L27.5892 10.1771ZM62.3024 5.21035C62.2513 5.2501 62.2004 5.28963 62.1502 5.32916C62.0876 5.38135 62.0235 5.43267 61.9595 5.48388C61.7305 5.66724 61.5033 5.84918 61.3539 6.06483C61.8476 6.00966 62.3413 5.95448 62.835 5.88092C63.2013 5.82574 63.5836 5.95448 63.5517 6.34071C63.5199 6.70855 63.1536 6.92926 62.8032 7.00282C62.1183 7.11317 61.4494 7.16835 60.7964 7.14996C60.446 7.13157 60.1912 6.91086 60.1275 6.5982C60.0797 6.3775 60.1116 6.1384 60.1912 5.89931C60.2549 5.697 60.3664 5.49468 60.4938 5.31077C60.7805 4.92453 61.1468 4.61187 61.529 4.29921C61.6072 4.24766 61.6775 4.18709 61.7509 4.12382C61.7823 4.09678 61.8142 4.06925 61.8476 4.04172C61.975 3.93137 62.1024 3.78423 62.1024 3.6371C62.1024 3.45318 61.9431 3.398 61.7679 3.43479C61.529 3.48349 61.3769 3.6468 61.224 3.81092C61.2037 3.83266 61.1832 3.85469 61.1627 3.87619C61.0194 4.00494 60.8601 4.13368 60.669 4.18886C60.4142 4.26243 60.2549 4.11529 60.3186 3.89459C60.3823 3.72906 60.5097 3.56353 60.6531 3.43479C60.9875 3.10373 61.4335 2.88303 61.8794 2.77268C62.5961 2.60715 63.3925 2.77268 63.5039 3.47157C63.5517 3.80263 63.3925 4.15207 63.1695 4.42795C62.9239 4.72728 62.6081 4.97275 62.3024 5.21035ZM53.1347 12.5781C51.9694 12.5781 46.2135 18.0048 52.1636 18.0048C57.0367 18.0048 54.2118 12.5781 53.1347 12.5781ZM13.9096 12.3339C12.5978 12.3339 5.64343 17.7605 12.7775 17.7605C18.4381 17.7605 15.2215 12.3339 13.9096 12.3339Z" fill="#22223C"/>
</svg>
