<svg width="64" height="24" viewBox="0 0 64 24" fill="none" xmlns="http://www.w3.org/2000/svg">
<path fill-rule="evenodd" clip-rule="evenodd" d="M26.3538 9.72138C25.8928 8.74858 25.4503 7.81491 24.7738 6.93983C24.7782 6.86489 24.9173 6.73281 25.1209 6.53943C25.7026 5.98698 26.811 4.93427 26.811 3.28459C26.811 1.9925 25.9961 0.700417 24.7569 0.241387C20.5129 -1.28871 17.9155 4.8827 21.6672 6.75282L21.7521 6.99084C21.4057 7.45674 20.8226 8.64512 20.3596 9.58878C20.0286 10.2635 19.7589 10.8132 19.681 10.8841C19.5961 10.8161 19.5113 10.7481 19.4434 10.6801C17.2195 8.24892 14.8938 6.31079 11.3797 6.31079C10.6328 6.31079 9.18981 6.56581 8.45984 6.78682C8.17248 6.67523 7.96615 5.96713 7.70999 5.08797C7.22463 3.42224 6.56036 1.14245 4.82696 1.14245C2.72193 1.14245 1.61848 6.59981 1.32989 8.26592C1.21041 8.96755 1.08571 9.67091 0.960811 10.3755C0.695292 11.8732 0.428824 13.3763 0.209467 14.8794C-0.0791267 16.9025 -0.180983 18.6876 0.650845 20.5407C0.956414 21.2208 2.60309 22.3769 3.35004 22.3939C8.15427 23.6179 14.3845 22.8189 18.5436 20.1837C18.5957 20.206 18.7746 20.4402 18.9878 20.7193C19.2616 21.0776 19.592 21.5099 19.7829 21.6628C21.7521 23.2269 25.1813 22.7339 27.1505 21.4758C28.8821 22.5299 31.5643 23.2779 33.2789 21.7138C33.3513 21.6509 33.4416 21.5399 33.5428 21.4155C33.7971 21.1027 34.1199 20.7058 34.3993 20.7788L38.117 22.2238C39.9912 22.7162 41.1008 22.6098 42.8044 22.4466C42.9834 22.4294 43.1689 22.4116 43.3626 22.3939C43.3934 22.3887 43.762 22.4503 44.2914 22.5388C45.5142 22.7431 47.5954 23.0909 48.3536 23.0909C52.0544 23.0909 57.4358 22.0198 58.8448 18.0756C59.8464 15.3214 59.1843 12.1762 57.5207 9.76202C60.0162 10.2721 62.8172 8.26592 63.7339 5.86876C64.4809 3.91363 63.5981 2.21352 61.7987 1.44847C59.2692 0.377396 55.2629 1.70348 54.1934 4.47467C53.8878 5.25672 53.8878 6.00477 54.0915 6.70182C53.056 6.15778 51.8846 5.83476 50.6624 5.80076C46.673 5.68175 42.412 9.67701 40.6804 12.9922C40.3752 13.5614 40.2005 14.1241 40.0228 14.6964C39.9138 15.0472 39.8038 15.4016 39.6619 15.7634C39.6392 15.8428 39.5864 15.9221 39.5336 16.0014C39.5072 16.0411 39.4808 16.0808 39.4581 16.1204C39.0337 16.0354 36.0629 14.3523 36.0629 14.1313C36.0629 13.9731 36.733 13.2607 37.5471 12.3951C38.5703 11.3072 39.8212 9.97732 40.256 9.20098C41.2576 7.43287 39.2884 6.78682 38.3547 7.29686C38.3426 7.30089 38.1759 7.39097 37.909 7.53514C37.0505 7.99899 35.1563 9.02232 34.0428 9.54101C33.9157 9.08271 33.76 8.12871 33.6399 7.39282C33.5996 7.14596 33.5633 6.92364 33.5335 6.75282C33.3128 5.49474 33.0242 4.32166 32.5489 3.13158C32.2094 2.26452 31.5133 1.22745 30.4778 1.22745C28.5256 1.22745 27.6088 5.20572 27.3542 6.68482C27.3363 6.78512 27.3064 6.99716 27.2677 7.27097C27.1229 8.29659 26.8556 10.1889 26.6412 10.3231C26.5435 10.1215 26.4486 9.92139 26.3546 9.72292L26.3538 9.72138ZM59.5127 4.97705C59.4639 5.01502 59.4153 5.05278 59.3673 5.09054C59.3076 5.1404 59.2463 5.18942 59.1852 5.23833C58.9665 5.41348 58.7494 5.58728 58.6067 5.79328C59.0783 5.74057 59.5499 5.68786 60.0215 5.61759C60.3714 5.56489 60.7366 5.68786 60.7061 6.0568C60.6757 6.40817 60.3258 6.61899 59.9911 6.68926C59.3369 6.79467 58.6979 6.84738 58.0742 6.82981C57.7395 6.81224 57.4961 6.60142 57.4352 6.30276C57.3896 6.09194 57.42 5.86355 57.4961 5.63516C57.5569 5.44191 57.6634 5.24865 57.7851 5.07297C58.059 4.70403 58.4089 4.40537 58.774 4.10671C58.8486 4.05747 58.9158 3.99961 58.9859 3.93917C59.0159 3.91334 59.0464 3.88705 59.0783 3.86075C59.2 3.75534 59.3217 3.61479 59.3217 3.47424C59.3217 3.29856 59.1696 3.24585 59.0022 3.28099C58.774 3.32751 58.6286 3.48351 58.4826 3.64028C58.4633 3.66105 58.4437 3.68209 58.4241 3.70263C58.2872 3.82561 58.1351 3.94859 57.9525 4.0013C57.7091 4.07157 57.5569 3.93102 57.6178 3.7202C57.6786 3.56209 57.8004 3.40397 57.9373 3.28099C58.2568 2.96476 58.6827 2.75394 59.1087 2.64853C59.7933 2.49041 60.554 2.64853 60.6605 3.31613C60.7061 3.63236 60.554 3.96616 60.341 4.22969C60.1064 4.51561 59.8048 4.75009 59.5127 4.97705ZM50.7556 12.0149C49.6424 12.0149 44.1442 17.1986 49.8279 17.1986C54.4829 17.1986 51.7844 12.0149 50.7556 12.0149ZM13.2868 11.7816C12.0338 11.7816 5.39074 16.9653 12.2054 16.9653C17.6125 16.9653 14.5399 11.7816 13.2868 11.7816Z" fill="white"/>
</svg>
